<svg width="250" height="250" xmlns="http://www.w3.org/2000/svg">

 <g>
  <title>background</title>
  <rect fill="none" id="canvas_background" height="252" width="252" y="-1" x="-1"/>
 </g>
 <g>
  <title>logo</title>
  <path id="svg_1" fill="black" d="m246.411,187.545c-0.798,-2.976 -3.856,-4.742 -6.832,-3.945l-53.884,14.438c-2.976,0.797 -4.742,3.856 -3.945,6.832l1.733,6.466c0.797,2.976 3.856,4.742 6.832,3.944l53.884,-14.437c2.976,-0.798 4.742,-3.857 3.945,-6.832l-1.733,-6.466z"/>
  <path id="svg_2" fill="black" d="m35.3792,48.7328c-0.4357,-0.4357 -1.1421,-0.4357 -1.5778,0l-6.3113,6.3112c-0.4357,0.4357 -0.4357,1.1421 0,1.5778l156.2069,156.2032c0.435,0.436 1.142,0.436 1.578,0l6.311,-6.311c0.436,-0.436 0.436,-1.142 0,-1.578l-156.2068,-156.2032z"/>
  <path id="svg_3" fill="black" d="m4.5616,187.546c0.7974,-2.975 3.8563,-4.742 6.8322,-3.944l53.8842,14.438c2.9759,0.797 4.742,3.856 3.9446,6.832l-1.7326,6.466c-0.7974,2.976 -3.8563,4.742 -6.8323,3.945l-53.8841,-14.438c-2.9759,-0.798 -4.742,-3.856 -3.9446,-6.832l1.7326,-6.467z"/>
  <path id="svg_4" fill="black" d="m215.593,48.7328c0.435,-0.4357 1.142,-0.4357 1.578,0l6.311,6.3114c0.436,0.4357 0.436,1.1421 0,1.5778l-156.206,156.206c-0.4357,0.435 -1.1421,0.435 -1.5778,0l-6.3114,-6.312c-0.4357,-0.435 -0.4357,-1.142 0,-1.577l156.2062,-156.2062z"/>
  <path id="svg_5" stroke-width="3" stroke="black" fill="white" d="m180.468,178.496c-20.413,49.5 -90.523,49.501 -110.9364,0l-18.6078,-45.121c-16.2872,-39.495 12.7475,-82.875 55.4682,-82.875l37.216,0c42.721,0 71.755,43.38 55.468,82.875l-18.608,45.121z"/>
  <path id="svg_6" stroke-width="3" stroke="black" fill="black" d="m112.384,123.327c-1.219,3.35 -4.168,5.832 -8.158,7.041c-3.99,1.21 -8.929,1.107 -13.843,-0.682c-4.915,-1.789 -8.765,-4.884 -11.0438,-8.376c-2.2785,-3.491 -2.9425,-7.288 -1.7235,-10.637c1.219,-3.35 4.1683,-5.832 8.1583,-7.041c3.99,-1.21 8.929,-1.106 13.843,0.682c4.915,1.789 8.765,4.884 11.044,8.376c2.278,3.491 2.942,7.288 1.723,10.637zm60,-12.654c1.219,3.349 0.555,7.146 -1.723,10.637c-2.279,3.492 -6.129,6.587 -11.044,8.376c-4.914,1.789 -9.853,1.892 -13.843,0.682c-3.99,-1.209 -6.939,-3.691 -8.158,-7.041c-1.219,-3.349 -0.555,-7.146 1.723,-10.637c2.279,-3.492 6.129,-6.587 11.044,-8.376c4.914,-1.788 9.853,-1.892 13.843,-0.682c3.99,1.209 6.939,3.691 8.158,7.041z"/>
  <path id="svg_7" fill="black" d="m115,89c0,2.209 -1.791,4 -4,4c-2.209,0 -4,-1.791 -4,-4c0,-2.209 1.791,-4 4,-4c2.209,0 4,1.791 4,4z"/>
  <path id="svg_8" fill="black" d="m115,76c0,2.209 -1.791,4 -4,4c-2.209,0 -4,-1.791 -4,-4c0,-2.209 1.791,-4 4,-4c2.209,0 4,1.791 4,4z"/>
  <path id="svg_9" fill="black" d="m115,63c0,2.209 -1.791,4 -4,4c-2.209,0 -4,-1.791 -4,-4c0,-2.2091 1.791,-4 4,-4c2.209,0 4,1.7909 4,4z"/>
  <path id="svg_10" fill="black" d="m115,192c0,2.209 -1.791,4 -4,4c-2.209,0 -4,-1.791 -4,-4c0,-2.209 1.791,-4 4,-4c2.209,0 4,1.791 4,4z"/>
  <path id="svg_11" fill="black" d="m115,179c0,2.209 -1.791,4 -4,4c-2.209,0 -4,-1.791 -4,-4c0,-2.209 1.791,-4 4,-4c2.209,0 4,1.791 4,4z"/>
  <path id="svg_12" fill="black" d="m102,179c0,2.209 -1.791,4 -4,4c-2.209,0 -4,-1.791 -4,-4c0,-2.209 1.791,-4 4,-4c2.209,0 4,1.791 4,4z"/>
  <path id="svg_13" fill="black" d="m89,179c0,2.209 -1.791,4 -4,4c-2.209,0 -4,-1.791 -4,-4c0,-2.209 1.791,-4 4,-4c2.209,0 4,1.791 4,4z"/>
  <path id="svg_14" fill="black" d="m115,166c0,2.209 -1.791,4 -4,4c-2.209,0 -4,-1.791 -4,-4c0,-2.209 1.791,-4 4,-4c2.209,0 4,1.791 4,4z"/>
  <path id="svg_15" fill="black" d="m102,166c0,2.209 -1.791,4 -4,4c-2.209,0 -4,-1.791 -4,-4c0,-2.209 1.791,-4 4,-4c2.209,0 4,1.791 4,4z"/>
  <path id="svg_16" fill="black" d="m115,153c0,2.209 -1.791,4 -4,4c-2.209,0 -4,-1.791 -4,-4c0,-2.209 1.791,-4 4,-4c2.209,0 4,1.791 4,4z"/>
  <path id="svg_17" fill="black" d="m143,89c0,2.209 -1.791,4 -4,4c-2.209,0 -4,-1.791 -4,-4c0,-2.209 1.791,-4 4,-4c2.209,0 4,1.791 4,4z"/>
  <path id="svg_18" fill="black" d="m143,76c0,2.209 -1.791,4 -4,4c-2.209,0 -4,-1.791 -4,-4c0,-2.209 1.791,-4 4,-4c2.209,0 4,1.791 4,4z"/>
  <path id="svg_19" fill="black" d="m143,63c0,2.209 -1.791,4 -4,4c-2.209,0 -4,-1.791 -4,-4c0,-2.2091 1.791,-4 4,-4c2.209,0 4,1.7909 4,4z"/>
  <path id="svg_20" fill="black" d="m143,192c0,2.209 -1.791,4 -4,4c-2.209,0 -4,-1.791 -4,-4c0,-2.209 1.791,-4 4,-4c2.209,0 4,1.791 4,4z"/>
  <path id="svg_21" fill="black" d="m143,179c0,2.209 -1.791,4 -4,4c-2.209,0 -4,-1.791 -4,-4c0,-2.209 1.791,-4 4,-4c2.209,0 4,1.791 4,4z"/>
  <path id="svg_22" fill="black" d="m156,179c0,2.209 -1.791,4 -4,4c-2.209,0 -4,-1.791 -4,-4c0,-2.209 1.791,-4 4,-4c2.209,0 4,1.791 4,4z"/>
  <path id="svg_23" fill="black" d="m169,179c0,2.209 -1.791,4 -4,4c-2.209,0 -4,-1.791 -4,-4c0,-2.209 1.791,-4 4,-4c2.209,0 4,1.791 4,4z"/>
  <path id="svg_24" fill="black" d="m143,166c0,2.209 -1.791,4 -4,4c-2.209,0 -4,-1.791 -4,-4c0,-2.209 1.791,-4 4,-4c2.209,0 4,1.791 4,4z"/>
  <path id="svg_25" fill="black" d="m156,166c0,2.209 -1.791,4 -4,4c-2.209,0 -4,-1.791 -4,-4c0,-2.209 1.791,-4 4,-4c2.209,0 4,1.791 4,4z"/>
  <path id="svg_26" fill="black" d="m143,153c0,2.209 -1.791,4 -4,4c-2.209,0 -4,-1.791 -4,-4c0,-2.209 1.791,-4 4,-4c2.209,0 4,1.791 4,4z"/>
  <path id="svg_27" stroke-width="3" stroke="black" d="m118.5,40.5l13,0l0,17l-13,0l0,-17zm-82,65l17,0l0,12l-17,0l0,-12zm160,0l17,0l0,12l-17,0l0,-12z"/>
 </g>
</svg>